<?xml version="1.0" encoding="UTF-8"?>
<!-- Created with Inkscape (http://www.inkscape.org/) -->
<svg id="SVGRoot" width="16px" height="16px" version="1.1" viewBox="0 0 16 16" xml:space="preserve" xmlns="http://www.w3.org/2000/svg" xmlns:xlink="http://www.w3.org/1999/xlink"><style>
#rect241, #rect3005, #rect3481 { 
    stroke-width:102px;
}
</style><defs><linearGradient id="linearGradient5508" x1="1.0227" x2="11.274" y1="7.2841" y2="7.2841" gradientTransform="matrix(1.3434 0 0 1.1306 -.36916 -.84717)" gradientUnits="userSpaceOnUse"><stop stop-color="#7164f0" offset="0"/></linearGradient></defs><rect x="1.176" y="5.9348" width="13.428" height="2.9064" ry=".076428" fill="#7164f0" stroke="url(#linearGradient5508)" stroke-width=".31426"/><g fill="#fff"><path d="m1.1975 6.3802c0.010725-8.972e-4 0.024421 0.045185 0.026801 0.10358 0.030932 0.75894 0.61511 2.8712 0.091806 2.5407-0.11641-0.073526 0.36342-0.87356-0.11388-0.12241-0.05529 0.087012 0.41542 0.31374 0.41263 0.29651l-0.44177-2.73c-0.00932-0.057569 0.013685-0.08742 0.024411-0.088317z" stroke="#7164f0" stroke-width=".25659"/><path d="m1.7532 7.2659c0-0.00353-9.401e-4 -0.012919-0.00202-0.020997-0.015643-0.11893-0.083338-0.22053-0.18205-0.27309-0.038702-0.020702-0.073493-0.031568-0.11462-0.035826l-0.010788-0.00103 0.011463-0.00119c0.052591-0.00514 0.0979-0.020554 0.14024-0.047717 0.074167-0.047865 0.12811-0.12583 0.14901-0.21525 0.00404-0.017178 0.00647-0.033329 0.00998-0.064603 0.00108-0.00925 0.00122-0.00954 0.00135-0.00325 5.406e-4 0.025108 0.010519 0.071797 0.021981 0.10292 0.044231 0.12098 0.14375 0.20644 0.26201 0.22479 0.00741 0.00119 0.016047 0.00222 0.019284 0.00222 0.0031 0 0.00566 7.392e-4 0.00566 0.00148 0 8.636e-4 -0.00256 0.00148-0.00566 0.00148-0.00323 0-0.011867 0.00103-0.019284 0.00222-0.072818 0.011306-0.13768 0.046984-0.18973 0.10439-0.017125 0.01894-0.02589 0.030684-0.04005 0.053445-0.022385 0.036265-0.039781 0.081194-0.048006 0.12348-0.00283 0.014681-0.00607 0.038762-0.00607 0.046543 0 0.00337-5.363e-4 0.00617-0.00135 0.00617-6.736e-4 0-0.00135-0.00279-0.00135-0.00617z"/><path d="m1.7053 8.1551c0-0.00347-9.89e-4 -0.0127-0.00212-0.020641-0.016464-0.11691-0.087687-0.21679-0.19154-0.26846-0.040719-0.02035-0.077323-0.031032-0.1206-0.035218l-0.01135-0.00101 0.01206-0.00117c0.055332-0.00505 0.103-0.020205 0.14755-0.046908 0.078033-0.047053 0.13478-0.12369 0.15677-0.21159 0.00425-0.016887 0.00681-0.032764 0.010499-0.063507 0.00113-0.0091 0.00128-0.00938 0.00142-0.00319 5.688e-4 0.024682 0.011067 0.070579 0.023127 0.10118 0.046536 0.11893 0.15124 0.20293 0.27567 0.22098 0.0078 0.00117 0.016883 0.00218 0.020289 0.00218 0.00326 0 0.00596 7.266e-4 0.00596 0.00145 0 8.489e-4 -0.00269 0.00145-0.00596 0.00145-0.0034 0-0.012486 0.00101-0.020289 0.00218-0.076613 0.011114-0.14486 0.046187-0.19962 0.10262-0.018018 0.018618-0.02724 0.030164-0.042137 0.052538-0.023551 0.03565-0.041854 0.079817-0.050508 0.12139-0.00298 0.014432-0.00639 0.038105-0.00639 0.045753 0 0.00331-5.643e-4 0.00607-0.00142 0.00607-7.087e-4 0-0.00142-0.00274-0.00142-0.00607z"/><path d="m2.1835 8.0524c0-0.00689-0.00162-0.025251-0.00349-0.041042-0.026992-0.23246-0.14381-0.43105-0.31415-0.53379-0.066787-0.040463-0.12683-0.061703-0.1978-0.070026l-0.018616-0.00202 0.019781-0.00231c0.090757-0.010052 0.16895-0.040173 0.24202-0.093268 0.12799-0.093557 0.22107-0.24595 0.25714-0.42072 0.00698-0.033577 0.011174-0.065146 0.01722-0.12627 0.00186-0.018084 0.0021-0.018655 0.00232-0.00635 9.329e-4 0.049077 0.018152 0.14033 0.037933 0.20118 0.076329 0.23648 0.24807 0.4035 0.45215 0.43937 0.012796 0.00231 0.027692 0.00433 0.033278 0.00433 0.00534 0 0.00977 0.00145 0.00977 0.00288 0 0.00168-0.00442 0.00288-0.00977 0.00288-0.00558 0-0.020478 0.00202-0.033278 0.00433-0.12566 0.022099-0.23759 0.091836-0.32742 0.20405-0.029554 0.03702-0.044679 0.059976-0.069114 0.10446-0.038629 0.070885-0.06865 0.1587-0.082844 0.24136-0.00489 0.028696-0.010477 0.075766-0.010477 0.090974 0 0.00658-9.256e-4 0.012058-0.00232 0.012058-0.00116 0-0.00232-0.00546-0.00232-0.012058z"/></g><text x="3.7046971" y="8.0341959" fill="#ffffff" font-size="2px" xml:space="preserve"><tspan x="3.7046971" y="8.0341959" font-size="2px">POPULAR</tspan></text></svg>
